<svg xmlns="http://www.w3.org/2000/svg" viewBox="0 0 64 64" shape-rendering="geometricPrecision">
  <rect width="64" height="64" fill="#f3efe7"/>
  <g fill="#0e1a1f">
    <g transform="translate(10.566 53.760) scale(0.05429 -0.05429)"><path d="M-23 -275Q-27 -276 -29.5 -271.0Q-32 -266 -28 -264Q61 -221 114.0 -178.5Q167 -136 193.0 -93.5Q219 -51 226 -8Q240 74 196.5 120.5Q153 167 54 167Q44 167 48 179L108 357Q110 364 112.0 365.5Q114 367 122 368Q201 378 245.0 384.5Q289 391 309.5 395.5Q330 400 337.0 406.5Q344 413 349 423Q351 426 356.0 424.0Q361 422 359 419L330 357Q324 344 318.0 341.5Q312 339 301 339L130 335Q119 335 113 320L64 172L69 196Q156 196 206.0 172.0Q256 148 274.0 106.0Q292 64 282 9Q272 -48 237.0 -94.5Q202 -141 138.5 -184.5Q75 -228 -23 -275Z"/></g>
    <g transform="translate(33.429 41.546) scale(0.02714 -0.02714)"><path d="M120 -12Q102 -12 85.5 -4.5Q69 3 61.0 20.5Q53 38 58 68L102 306Q109 344 103.5 352.5Q98 361 68 361Q64 361 65.0 367.0Q66 373 69 373Q101 373 124.5 394.0Q148 415 154 447Q154 450 162.5 450.0Q171 450 170 447L108 102Q100 60 111.0 40.5Q122 21 153 21Q185 21 208.5 35.5Q232 50 253 68Q255 70 259.0 66.0Q263 62 261 60Q216 21 182.5 4.5Q149 -12 120 -12ZM262 343Q259 343 239.0 345.5Q219 348 192.5 350.5Q166 353 142 353L144 375Q167 375 198.0 377.0Q229 379 255.0 380.5Q281 382 287 382Q291 382 293.0 380.0Q295 378 294 374Q292 366 282.0 354.5Q272 343 262 343Z"/></g>
    <g transform="translate(41.409 41.546) scale(0.02714 -0.02714)"><path d="M63 -8Q50 -8 46.0 -6.5Q42 -5 42 -2Q42 1 47.5 24.5Q53 48 57 74L161 627Q168 659 152.5 668.0Q137 677 90 654Q86 652 83.5 658.0Q81 664 85 665L208 725Q212 727 216.0 723.0Q220 719 219 717L89 6Q87 -8 63 -8ZM316 -9Q292 -9 286.5 12.5Q281 34 291 89L320 248Q331 307 322.0 336.0Q313 365 281 365Q248 365 211.5 323.0Q175 281 142.5 200.5Q110 120 89 6L78 7Q99 123 134.5 211.5Q170 300 215.0 349.5Q260 399 309 399Q352 399 365.0 368.5Q378 338 366 267L333 89Q328 58 332.5 43.0Q337 28 350 28Q362 28 380.0 41.5Q398 55 420 77Q424 81 428.0 77.0Q432 73 428 69Q395 32 368.5 11.5Q342 -9 316 -9Z"/></g>
  </g>
</svg>
